<svg width="120" height="120" viewBox="0 0 120 120" fill="none" xmlns="http://www.w3.org/2000/svg">
<path opacity="0.15" d="M35.55 113.175C35.55 113.743 36.1825 114.305 37.4112 114.83C38.6399 115.355 40.4409 115.832 42.7113 116.233C44.9817 116.635 47.677 116.954 50.6434 117.171C53.6098 117.388 56.7892 117.5 60 117.5C63.2109 117.5 66.3902 117.388 69.3567 117.171C72.3231 116.954 75.0184 116.635 77.2888 116.233C79.5592 115.832 81.3602 115.355 82.5889 114.83C83.8176 114.305 84.45 113.743 84.45 113.175C84.45 112.607 83.8176 112.045 82.5889 111.52C81.3602 110.995 79.5592 110.518 77.2888 110.117C75.0184 109.715 72.3231 109.397 69.3567 109.179C66.3902 108.962 63.2109 108.85 60 108.85C56.7892 108.85 53.6098 108.962 50.6434 109.179C47.677 109.397 44.9817 109.715 42.7113 110.117C40.4409 110.518 38.6399 110.995 37.4112 111.52C36.1825 112.045 35.55 112.607 35.55 113.175Z" fill="#45413C"/>
<path d="M76.223 83.7583L62.9693 89.3242C62.6147 89.4731 62.2155 89.4751 61.8595 89.3296C61.5035 89.1842 61.2199 88.9033 61.071 88.5487L54.3919 72.6443L70.2963 65.9652L76.9948 81.9157C77.1269 82.2633 77.1204 82.6482 76.9768 82.9911C76.8332 83.334 76.5633 83.6087 76.223 83.7583Z" fill="#C0DCEB"/>
<path d="M54.4001 72.6499L61.0751 88.5749L54.4001 72.6499Z" fill="#E8F4FA"/>
<path d="M77 81.9001L70.3 65.9751L65.3 68.0501L72.075 84.1501C72.1934 84.4492 72.1918 84.7824 72.0708 85.0804C71.9497 85.3784 71.7184 85.6183 71.425 85.7501L76.125 83.7751C76.3067 83.7109 76.4737 83.6112 76.6163 83.4817C76.759 83.3523 76.8744 83.1957 76.9559 83.0211C77.0373 82.8466 77.0832 82.6576 77.0908 82.4651C77.0984 82.2726 77.0675 82.0805 77 81.9001Z" fill="#E8F4FA"/>
<path d="M76.223 83.7583L62.9693 89.3242C62.6147 89.4731 62.2155 89.4751 61.8595 89.3296C61.5035 89.1842 61.2199 88.9033 61.071 88.5487L54.3919 72.6443L70.2963 65.9652L76.9948 81.9157C77.1269 82.2633 77.1204 82.6482 76.9768 82.9911C76.8332 83.334 76.5633 83.6087 76.223 83.7583V83.7583Z" stroke="#45413C" stroke-width="2" stroke-linecap="round" stroke-linejoin="round"/>
<path d="M83.0501 100.725C81.3556 103.965 80.7423 107.662 81.3001 111.275L79.0251 112.225C76.9713 109.492 74.139 107.444 70.9001 106.35C70.1597 106.177 69.4686 105.836 68.8794 105.356C68.2902 104.875 67.8185 104.266 67.5001 103.575C66.9403 102.235 66.5051 100.845 66.2001 99.4251L64.0251 88.9501L75.4001 84.175L81.3751 93.0501C82.149 94.2399 82.8181 95.4946 83.3751 96.8001C83.6132 97.4379 83.7075 98.1204 83.6513 98.7989C83.5951 99.4774 83.3899 100.135 83.0501 100.725Z" fill="#E8F4FA"/>
<path d="M83.2499 96.8001C82.6929 95.4946 82.0238 94.2399 81.2499 93.0501L75.275 84.175L70.7 86.1L76.55 94.8251C77.3513 96.0026 78.0298 97.2592 78.575 98.5751C78.8214 99.2071 78.9289 99.8848 78.8901 100.562C78.8512 101.239 78.667 101.9 78.3499 102.5C77.2486 104.673 76.594 107.045 76.4249 109.475C77.3621 110.292 78.2011 111.215 78.9249 112.225L81.1999 111.275C80.6421 107.662 81.2554 103.965 82.95 100.725C83.2856 100.133 83.4865 99.4745 83.5384 98.7961C83.5902 98.1176 83.4917 97.4361 83.2499 96.8001Z" fill="white"/>
<path d="M83.0501 100.725C81.3556 103.965 80.7423 107.662 81.3001 111.275L79.0251 112.225C76.9713 109.492 74.139 107.444 70.9001 106.35C70.1597 106.177 69.4686 105.836 68.8794 105.356C68.2902 104.875 67.8185 104.266 67.5001 103.575C66.9403 102.235 66.5051 100.845 66.2001 99.4251L64.0251 88.9501L75.4001 84.175L81.3751 93.0501C82.149 94.2399 82.8181 95.4946 83.3751 96.8001C83.6132 97.4379 83.7075 98.1204 83.6513 98.7989C83.5951 99.4774 83.3899 100.135 83.0501 100.725V100.725Z" stroke="#45413C" stroke-width="2" stroke-linecap="round" stroke-linejoin="round"/>
<path d="M80.1751 111.75L74.6001 98.5" stroke="#45413C" stroke-width="2" stroke-linecap="round" stroke-linejoin="round"/>
<path d="M71.9501 99.6001C71.7332 99.0755 71.6764 98.4983 71.787 97.9415C71.8976 97.3847 72.1705 96.873 72.5715 96.4711C72.9724 96.0691 73.4834 95.7949 74.0399 95.6829C74.5965 95.571 75.1738 95.6263 75.6989 95.8419C76.2241 96.0576 76.6737 96.4239 76.991 96.8946C77.3083 97.3654 77.4791 97.9196 77.4819 98.4873C77.4847 99.055 77.3194 99.6108 77.0067 100.085C76.6941 100.559 76.2481 100.929 75.7251 101.15C75.3757 101.298 75.0005 101.375 74.6211 101.376C74.2418 101.378 73.8658 101.305 73.5149 101.161C73.164 101.017 72.8451 100.805 72.5765 100.537C72.308 100.269 72.0951 99.9506 71.9501 99.6001Z" fill="#45413C"/>
<path d="M71.8501 62.2L52.3501 15.8C51.764 14.408 50.9096 13.145 49.8355 12.0833C48.7613 11.0215 47.4886 10.1816 46.0899 9.61172C44.6912 9.0418 43.194 8.75295 41.6837 8.76167C40.1734 8.77038 38.6796 9.07649 37.2876 9.66251C35.8956 10.2485 34.6326 11.103 33.5708 12.1771C32.509 13.2512 31.6692 14.524 31.0993 15.9226C30.5293 17.3213 30.2405 18.8186 30.2492 20.3289C30.2579 21.8392 30.564 23.333 31.1501 24.725L50.6251 71.125C50.7724 71.4734 50.987 71.7892 51.2566 72.0545C51.5262 72.3197 51.8454 72.5292 52.1961 72.6708C52.5468 72.8125 52.922 72.8836 53.3002 72.88C53.6784 72.8764 54.0521 72.7983 54.4001 72.65L70.3001 65.975C71.0037 65.6769 71.5612 65.1132 71.8514 64.4063C72.1417 63.6994 72.1412 62.9065 71.8501 62.2Z" fill="#87898C"/>
<path d="M31.1501 24.7L50.6251 71.125L31.1501 24.7Z" fill="#BDBEC0"/>
<path d="M71.8501 62.2L52.3501 15.8C51.1688 13.0018 48.9285 10.7845 46.1181 9.63231C43.3078 8.48008 40.1558 8.48643 37.3501 9.64999C36.8927 9.86163 36.45 10.1038 36.0251 10.375C37.968 9.94395 40.0006 10.2083 41.7686 11.122C43.5366 12.0357 44.9279 13.5408 45.7001 15.375L66.6501 65.375C66.8654 65.8955 66.8651 66.4802 66.6495 67.0005C66.4339 67.5209 66.0205 67.9343 65.5001 68.15L57.8251 71.4L70.3251 66.125C70.69 65.976 71.0206 65.7542 71.2968 65.4732C71.5731 65.1922 71.7892 64.8578 71.9319 64.4905C72.0746 64.1232 72.1409 63.7306 72.1269 63.3368C72.1128 62.943 72.0187 62.5562 71.8501 62.2Z" fill="#BDBEC0"/>
<path d="M71.8501 62.2L52.3501 15.8C51.764 14.408 50.9096 13.145 49.8355 12.0833C48.7613 11.0215 47.4886 10.1816 46.0899 9.61172C44.6912 9.0418 43.194 8.75295 41.6837 8.76167C40.1734 8.77038 38.6796 9.07649 37.2876 9.66251C35.8956 10.2485 34.6326 11.103 33.5708 12.1771C32.509 13.2512 31.6692 14.524 31.0993 15.9226C30.5293 17.3213 30.2405 18.8186 30.2492 20.3289C30.2579 21.8392 30.564 23.333 31.1501 24.725L50.6251 71.125C50.7724 71.4734 50.987 71.7892 51.2566 72.0545C51.5262 72.3197 51.8454 72.5292 52.1961 72.6708C52.5468 72.8125 52.922 72.8836 53.3002 72.88C53.6784 72.8764 54.0521 72.7983 54.4001 72.65L70.3001 65.975C71.0037 65.6769 71.5612 65.1132 71.8514 64.4063C72.1417 63.6994 72.1412 62.9065 71.8501 62.2V62.2Z" stroke="#45413C" stroke-width="2" stroke-linecap="round" stroke-linejoin="round"/>
<path d="M76.65 77.3501L58.075 85.1501" stroke="#45413C" stroke-width="2" stroke-linecap="round" stroke-linejoin="round"/>
<path d="M41.3252 26.6751C41.1676 26.3252 41.0816 25.9472 41.0724 25.5636C41.0631 25.1799 41.1308 24.7983 41.2714 24.4412C41.412 24.0841 41.6226 23.7587 41.891 23.4843C42.1593 23.21 42.4798 22.9921 42.8337 22.8435C43.1875 22.695 43.5675 22.6188 43.9513 22.6194C44.3351 22.62 44.7149 22.6975 45.0682 22.8472C45.4216 22.997 45.7414 23.2159 46.0088 23.4912C46.2762 23.7665 46.4858 24.0925 46.6252 24.4501L56.6252 48.3251C56.8975 49.0236 56.8862 49.8008 56.5937 50.4911C56.3012 51.1813 55.7506 51.7301 55.0594 52.0203C54.3682 52.3105 53.5909 52.3192 52.8933 52.0445C52.1957 51.7699 51.633 51.2336 51.3252 50.5501L41.3252 26.6751Z" fill="#DAEDF7" stroke="#45413C" stroke-width="2" stroke-linecap="round" stroke-linejoin="round"/>
</svg>
